M48
;Layer_Color=9474304
;FILE_FORMAT=4:4
METRIC,LZ
;TYPE=PLATED
T1F00S00C0.3000
T2F00S00C1.0160
T3F00S00C1.0200
T4F00S00C1.1000
;TYPE=NON_PLATED
T5F00S00C0.8000
%
T01
X00491Y00284
Y00304
X00492Y00314
X00567Y00304
X00569Y00284
X00571Y00331
X0080625Y00516
X0081073Y0054525
X00798Y00565
X00783505Y00545054
X007765Y00547
X00764964Y00544642
X0076825Y005325
X007825Y0053273
X0079Y005025
X00734404Y00503585
X0072975Y00498
X0073425Y005205
X00728231Y00524767
X0073375Y0053031
X00734Y00545
X007495Y005455
X00732269Y00574095
X00725Y00574
X00492Y00506
X003285Y005075
X003315Y00515
X0032375Y0051425
X00325001Y00472842
X00288Y00442
X00276905Y00437095
T02
X002805Y0034675
Y0049661
T03
X004398Y005325
X004652
T04
X0024Y003209
Y003463
Y003717
Y003971
Y004225
Y004479
Y004733
Y004987
Y005241
X00337761Y00564501
T05
X0052975Y00279
Y00309
M30
