%TF.GenerationSoftware,Altium Limited,Altium Designer,23.4.1 (23)*%
G04 Layer_Color=8388736*
%FSLAX45Y45*%
%MOMM*%
%TF.SameCoordinates,38C36DA3-20F4-41F3-B595-29ED6E075D57*%
%TF.FilePolarity,Negative*%
%TF.FileFunction,Soldermask,Top*%
%TF.Part,Single*%
G01*
G75*
%TA.AperFunction,SMDPad,CuDef*%
%ADD10R,0.43000X0.43000*%
%TA.AperFunction,BGAPad,CuDef*%
%ADD11R,0.60000X0.60000*%
%TA.AperFunction,ConnectorPad*%
%ADD12R,0.35000X0.30000*%
%TA.AperFunction,SMDPad,CuDef*%
%ADD13R,0.35000X0.35000*%
%TA.AperFunction,ConnectorPad*%
%ADD14R,0.30000X0.35000*%
%TA.AperFunction,SMDPad,CuDef*%
%ADD18R,0.70000X0.40000*%
%ADD19R,0.86360X0.20320*%
%ADD20R,0.20320X0.86360*%
%TA.AperFunction,ComponentPad*%
%ADD34C,1.52400*%
%ADD35C,1.57000*%
%ADD36R,1.57000X1.57000*%
%TA.AperFunction,SMDPad,CuDef*%
%ADD45R,0.90000X0.75000*%
%ADD46R,0.75000X0.79000*%
%ADD47R,2.55000X0.71000*%
%ADD48R,1.75000X0.80000*%
%ADD49R,1.15000X1.05000*%
%ADD50R,1.05000X1.15000*%
%TA.AperFunction,ViaPad*%
%ADD51C,1.75000*%
%TA.AperFunction,ComponentPad*%
%ADD52C,1.75000*%
%ADD53R,1.75000X1.75000*%
%ADD54C,0.95000*%
D10*
X8423500Y4765000D02*
D03*
Y5375000D02*
D03*
D11*
X7900000Y5025000D02*
D03*
X7810000D02*
D03*
X7720000D02*
D03*
X7630000D02*
D03*
Y5115000D02*
D03*
X7720000D02*
D03*
X7810000D02*
D03*
X7900000D02*
D03*
X7990000D02*
D03*
Y5025000D02*
D03*
X7540000D02*
D03*
Y5115000D02*
D03*
X7990000Y4935000D02*
D03*
X7900000D02*
D03*
X7810000D02*
D03*
X7720000D02*
D03*
X7630000D02*
D03*
X7540000D02*
D03*
Y5205000D02*
D03*
X7630000D02*
D03*
X7720000D02*
D03*
X7810000D02*
D03*
X7900000D02*
D03*
X7990000D02*
D03*
D12*
X8127500Y5340000D02*
D03*
Y5295000D02*
D03*
Y5250000D02*
D03*
Y5205000D02*
D03*
Y5160000D02*
D03*
Y5115000D02*
D03*
Y5070000D02*
D03*
Y5025000D02*
D03*
Y4980000D02*
D03*
Y4935000D02*
D03*
Y4890000D02*
D03*
Y4845000D02*
D03*
Y4800000D02*
D03*
X7402500Y4800000D02*
D03*
Y4845000D02*
D03*
Y4890000D02*
D03*
Y4935000D02*
D03*
Y4980000D02*
D03*
Y5025000D02*
D03*
Y5070000D02*
D03*
Y5115000D02*
D03*
Y5160000D02*
D03*
Y5205000D02*
D03*
Y5250000D02*
D03*
Y5295000D02*
D03*
Y5340000D02*
D03*
D13*
Y4752500D02*
D03*
Y5387500D02*
D03*
X8127500Y4752500D02*
D03*
Y5387500D02*
D03*
D14*
X8080000Y4752500D02*
D03*
X8035000D02*
D03*
X7990000D02*
D03*
X7945000D02*
D03*
X7900000D02*
D03*
X7855000D02*
D03*
X7810000D02*
D03*
X7765000D02*
D03*
X7720000D02*
D03*
X7675000D02*
D03*
X7630000D02*
D03*
X7585000D02*
D03*
X7540000D02*
D03*
X7495000D02*
D03*
X7450000D02*
D03*
Y5387500D02*
D03*
X7495000D02*
D03*
X7540000D02*
D03*
X7585000D02*
D03*
X7630000D02*
D03*
X7675000D02*
D03*
X7720000D02*
D03*
X7765000D02*
D03*
X7810000D02*
D03*
X7855000D02*
D03*
X7900000D02*
D03*
X7945000D02*
D03*
X7990000D02*
D03*
X8035000D02*
D03*
X8080000D02*
D03*
D18*
X6850000Y5645000D02*
D03*
X6720000D02*
D03*
Y5715000D02*
D03*
X6850000D02*
D03*
D19*
X3083024Y4891771D02*
D03*
X3268444D02*
D03*
D20*
X3095733Y4969241D02*
D03*
X3135734D02*
D03*
X3175734D02*
D03*
X3215733D02*
D03*
X3255734D02*
D03*
Y4814301D02*
D03*
X3215733D02*
D03*
X3175734D02*
D03*
X3135734D02*
D03*
X3095733D02*
D03*
D34*
X2805000Y3467500D02*
D03*
Y4966100D02*
D03*
D35*
X4398000Y5325000D02*
D03*
D36*
X4652000D02*
D03*
D45*
X7333549Y4599271D02*
D03*
X7448549D02*
D03*
X7467500Y5550000D02*
D03*
X7582500D02*
D03*
X7027500Y5605000D02*
D03*
X7142500D02*
D03*
X7027500Y5755000D02*
D03*
X7142500D02*
D03*
D46*
X7844000Y5550000D02*
D03*
X7756000D02*
D03*
X3318500Y5387500D02*
D03*
X3406500D02*
D03*
X8044000Y5550000D02*
D03*
X7956000D02*
D03*
X3315714Y5269357D02*
D03*
X3403714D02*
D03*
D47*
X5477500Y2740000D02*
D03*
X5117500D02*
D03*
X5477500Y2840000D02*
D03*
X5117500D02*
D03*
X5477500Y2940000D02*
D03*
X5117500D02*
D03*
X5477500Y3040000D02*
D03*
X5117500D02*
D03*
X5477500Y3140000D02*
D03*
X5117500D02*
D03*
D48*
X3435734Y4829301D02*
D03*
Y4964301D02*
D03*
D49*
X3120000Y5237500D02*
D03*
Y5102500D02*
D03*
D50*
X3578234Y5139301D02*
D03*
X3443234D02*
D03*
D51*
X3377614Y5645007D02*
D03*
D52*
X2400000Y5241000D02*
D03*
Y4987000D02*
D03*
Y4733000D02*
D03*
Y4225000D02*
D03*
Y3717000D02*
D03*
Y3463000D02*
D03*
Y3971000D02*
D03*
Y4479000D02*
D03*
D53*
Y3209000D02*
D03*
D54*
X5297500Y2790000D02*
D03*
Y3090000D02*
D03*
%TF.MD5,025dc451a5da002154ddd1515cd4d5ea*%
M02*
