%TF.GenerationSoftware,Altium Limited,Altium Designer,23.4.1 (23)*%
G04 Layer_Physical_Order=1*
G04 Layer_Color=255*
%FSLAX45Y45*%
%MOMM*%
%TF.SameCoordinates,38C36DA3-20F4-41F3-B595-29ED6E075D57*%
%TF.FilePolarity,Positive*%
%TF.FileFunction,Copper,L1,Top,Signal*%
%TF.Part,Single*%
G01*
G75*
%TA.AperFunction,SMDPad,CuDef*%
%ADD10R,0.43000X0.43000*%
%TA.AperFunction,BGAPad,CuDef*%
%ADD11R,0.60000X0.60000*%
%TA.AperFunction,ConnectorPad*%
%ADD12R,0.35000X0.30000*%
%TA.AperFunction,SMDPad,CuDef*%
%ADD13R,0.35000X0.35000*%
%TA.AperFunction,ConnectorPad*%
%ADD14R,0.30000X0.35000*%
%TA.AperFunction,SMDPad,CuDef*%
%ADD15R,0.75000X0.60000*%
%ADD16R,0.60000X0.64000*%
%ADD17R,2.40000X0.56000*%
%ADD18R,0.70000X0.40000*%
%ADD19R,0.86360X0.20320*%
%ADD20R,0.20320X0.86360*%
%ADD21R,1.60000X0.65000*%
%ADD22R,1.00000X0.90000*%
%ADD23R,0.90000X1.00000*%
%TA.AperFunction,Conductor*%
%ADD24C,0.20320*%
%ADD25C,0.12700*%
%ADD26C,0.38100*%
%ADD27C,0.30480*%
%ADD28C,0.25400*%
%ADD29C,0.63500*%
%TA.AperFunction,ViaPad*%
%ADD30C,1.60000*%
%TA.AperFunction,ComponentPad*%
%ADD31C,1.60000*%
%ADD32R,1.60000X1.60000*%
%ADD33C,0.80000*%
%ADD34C,1.52400*%
%ADD35C,1.57000*%
%ADD36R,1.57000X1.57000*%
%TA.AperFunction,ViaPad*%
%ADD37C,0.60000*%
G36*
X8151253Y5875000D02*
Y5486894D01*
X8138553Y5481633D01*
X8131487Y5488699D01*
X8115794Y5495200D01*
X8098807D01*
X8083113Y5488699D01*
X8071101Y5476687D01*
X8064600Y5460993D01*
Y5444006D01*
X8070236Y5430400D01*
X8065120Y5417700D01*
X8015898D01*
Y5432423D01*
X8045062Y5461587D01*
X8050676Y5469989D01*
X8052648Y5479900D01*
Y5505300D01*
X8086700D01*
Y5594700D01*
X8052598D01*
Y5600393D01*
X8050627Y5610303D01*
X8045013Y5618705D01*
X8022557Y5641161D01*
X8022700Y5641506D01*
Y5658493D01*
X8016199Y5674187D01*
X8004187Y5686199D01*
X7988494Y5692700D01*
X7971507D01*
X7955813Y5686199D01*
X7943801Y5674187D01*
X7937300Y5658493D01*
Y5641506D01*
X7943801Y5625812D01*
X7955813Y5613801D01*
X7971507Y5607300D01*
X7983168D01*
X8000803Y5589665D01*
Y5567300D01*
X8001300Y5564798D01*
Y5535002D01*
X8000852Y5532749D01*
Y5490627D01*
X7971688Y5461462D01*
X7966074Y5453060D01*
X7964103Y5443150D01*
Y5417700D01*
X7962300D01*
Y5357300D01*
X8151253D01*
Y5187700D01*
X8097301D01*
X8097301Y5187700D01*
Y5187700D01*
X8087965Y5194921D01*
X8086687Y5196199D01*
X8070993Y5202700D01*
X8054006D01*
X8045400Y5199135D01*
X8032700Y5207180D01*
Y5247700D01*
X7955400D01*
X7947300Y5247700D01*
X7934600Y5247700D01*
X7865400D01*
X7857300Y5247700D01*
X7844600Y5247700D01*
X7775400D01*
X7767300Y5247700D01*
X7754600Y5247700D01*
X7685400D01*
X7677300Y5247700D01*
X7664600Y5247700D01*
X7595400D01*
X7587300Y5247700D01*
X7574600Y5247700D01*
X7497300D01*
Y5170400D01*
X7497300Y5162300D01*
X7497300Y5149600D01*
Y5080400D01*
X7497300Y5072300D01*
X7497300Y5059599D01*
Y4990400D01*
X7497300Y4982300D01*
X7497300Y4969600D01*
Y4892300D01*
X7574600D01*
X7582700Y4892300D01*
X7595400Y4892300D01*
X7664600D01*
X7672700Y4892300D01*
X7685400Y4892300D01*
X7754600D01*
X7762700Y4892300D01*
X7775400Y4892300D01*
X7844600D01*
X7852700Y4892300D01*
X7865400Y4892300D01*
X7934600D01*
X7942700Y4892300D01*
X7955400Y4892300D01*
X8032700D01*
Y4969600D01*
X8032700Y4977700D01*
X8032700Y4990400D01*
Y5059599D01*
X8032700Y5067700D01*
X8032700Y5080400D01*
Y5112819D01*
X8045400Y5120865D01*
X8054006Y5117300D01*
X8070993D01*
X8084600Y5122936D01*
X8092577Y5119723D01*
X8097300Y5116453D01*
Y4997300D01*
Y4907300D01*
Y4782700D01*
X7432700D01*
Y4862300D01*
Y4952300D01*
Y5042300D01*
Y5132300D01*
Y5222300D01*
Y5312300D01*
Y5417700D01*
X7408925D01*
X7382700Y5443925D01*
Y5458494D01*
X7376199Y5474187D01*
X7364187Y5486199D01*
X7348493Y5492700D01*
X7331506D01*
X7315812Y5486199D01*
X7303801Y5474187D01*
X7297300Y5458494D01*
Y5443925D01*
X7181688Y5328313D01*
X7176074Y5319911D01*
X7174102Y5310000D01*
Y4732820D01*
X7176074Y4722909D01*
X7181688Y4714507D01*
X7283349Y4612846D01*
Y4556571D01*
X7383749D01*
Y4641971D01*
X7327337D01*
X7327061Y4642383D01*
X7225898Y4743547D01*
Y5299273D01*
X7333925Y5407300D01*
X7346075D01*
X7372300Y5381075D01*
Y5345280D01*
X7359600Y5340164D01*
X7345994Y5345800D01*
X7329007D01*
X7313313Y5339299D01*
X7301301Y5327287D01*
X7294800Y5311593D01*
Y5302108D01*
X7291890Y5293556D01*
X7283067Y5290374D01*
X7273820D01*
X7258126Y5283874D01*
X7246114Y5271862D01*
X7239613Y5256168D01*
Y5239181D01*
X7246114Y5223487D01*
X7258126Y5211475D01*
X7273820Y5204975D01*
X7290806D01*
X7294863Y5202264D01*
X7300349Y5195181D01*
X7306301Y5180812D01*
X7318312Y5168801D01*
X7334006Y5162300D01*
X7350993D01*
X7359600Y5165865D01*
X7372300Y5157820D01*
Y5084108D01*
X7359600Y5075622D01*
X7352534Y5078549D01*
X7335547D01*
X7319853Y5072048D01*
X7307842Y5060036D01*
X7301341Y5044342D01*
Y5027356D01*
X7298230Y5022700D01*
X7289006D01*
X7273312Y5016199D01*
X7261300Y5004187D01*
X7254800Y4988493D01*
Y4971506D01*
X7261300Y4955812D01*
X7273312Y4943801D01*
X7289006Y4937300D01*
X7305993D01*
X7321687Y4943801D01*
X7333699Y4955812D01*
X7335672Y4960577D01*
X7372300D01*
Y4862300D01*
Y4772300D01*
X7422300D01*
Y4722300D01*
X7430577D01*
Y4641971D01*
X7398349D01*
Y4556571D01*
X7498749D01*
Y4641971D01*
X7469423D01*
Y4722300D01*
X8157700D01*
Y4781376D01*
X8165000Y4786254D01*
X8504609D01*
Y2570391D01*
X2270391D01*
Y5879609D01*
X8148173D01*
X8151253Y5875000D01*
D02*
G37*
%LPC*%
G36*
X7077700Y5797700D02*
X6977300D01*
Y5739769D01*
X6971954Y5734423D01*
X6897700D01*
Y5747700D01*
X6802300D01*
Y5690401D01*
X6802300Y5682300D01*
X6802300Y5669600D01*
Y5612300D01*
X6870232D01*
X6891266Y5591266D01*
X6897568Y5587056D01*
X6905000Y5585577D01*
X6905002Y5585577D01*
X6977300D01*
Y5562300D01*
X7077700D01*
Y5647700D01*
X6977300D01*
Y5624423D01*
X6913046D01*
X6897700Y5639769D01*
X6897700Y5677700D01*
Y5686597D01*
X6906680Y5695577D01*
X6980000D01*
X6987433Y5697056D01*
X6993734Y5701266D01*
X7004768Y5712300D01*
X7077700D01*
Y5797700D01*
D02*
G37*
G36*
X7263643Y5819423D02*
X7195000D01*
X7187567Y5817945D01*
X7181266Y5813734D01*
X7165231Y5797700D01*
X7092300D01*
Y5712300D01*
X7192700D01*
Y5768965D01*
X7202262Y5777806D01*
X7208814Y5776983D01*
X7213801Y5764187D01*
X7207300Y5748493D01*
Y5731506D01*
X7213801Y5715813D01*
X7221526Y5708087D01*
Y5703995D01*
X7165231Y5647700D01*
X7092300D01*
Y5562300D01*
X7192700D01*
Y5620232D01*
X7254684Y5682215D01*
X7258894Y5688517D01*
X7260373Y5695950D01*
Y5698079D01*
X7274187Y5703801D01*
X7286199Y5715812D01*
X7287238Y5716019D01*
X7298506Y5704751D01*
X7314200Y5698250D01*
X7331187D01*
X7346881Y5704751D01*
X7358892Y5716763D01*
X7365393Y5732457D01*
Y5749444D01*
X7358892Y5765138D01*
X7346881Y5777149D01*
X7331187Y5783650D01*
X7314200D01*
X7309435Y5781677D01*
X7277378Y5813734D01*
X7271076Y5817945D01*
X7263643Y5819423D01*
D02*
G37*
G36*
X6767700Y5677700D02*
X6672300D01*
Y5612300D01*
X6767700D01*
Y5677700D01*
D02*
G37*
G36*
X7798700Y5594700D02*
X7713300D01*
Y5532768D01*
X7702216Y5521684D01*
X7698006Y5515383D01*
X7696527Y5507950D01*
Y5476520D01*
X7693350Y5474764D01*
X7683827Y5472627D01*
X7673830Y5482624D01*
X7658137Y5489124D01*
X7641150D01*
X7625456Y5482624D01*
X7617123Y5474291D01*
X7604423Y5479494D01*
Y5507300D01*
X7632700D01*
Y5592700D01*
X7532300D01*
Y5507300D01*
X7565577D01*
Y5417700D01*
X7536047D01*
X7530786Y5430400D01*
X7531199Y5430813D01*
X7537700Y5446507D01*
Y5463494D01*
X7531199Y5479188D01*
X7519188Y5491199D01*
X7503494Y5497700D01*
X7486507D01*
X7470813Y5491199D01*
X7458801Y5479188D01*
X7452300Y5463494D01*
Y5446507D01*
X7458801Y5430813D01*
X7461583Y5428031D01*
X7467300Y5417699D01*
Y5357300D01*
X7637820D01*
X7644401Y5344600D01*
X7639800Y5333494D01*
Y5316507D01*
X7646301Y5300813D01*
X7658313Y5288801D01*
X7674006Y5282300D01*
X7690994D01*
X7706687Y5288801D01*
X7718699Y5300813D01*
X7725200Y5316507D01*
Y5333494D01*
X7723226Y5338258D01*
X7730917Y5345949D01*
X7730918Y5345949D01*
X7735128Y5352251D01*
X7736132Y5357300D01*
X7778020D01*
X7785948Y5344600D01*
X7782300Y5335793D01*
Y5318806D01*
X7788801Y5303112D01*
X7800813Y5291101D01*
X7816507Y5284600D01*
X7833494D01*
X7849188Y5291101D01*
X7861199Y5303112D01*
X7867700Y5318806D01*
Y5335793D01*
X7863866Y5345048D01*
X7871219Y5357300D01*
X7927700D01*
Y5417700D01*
X7879185D01*
X7872922Y5430400D01*
X7877748Y5442049D01*
Y5459036D01*
X7871247Y5474730D01*
X7859235Y5486741D01*
X7843541Y5493242D01*
X7826554D01*
X7812226Y5487307D01*
X7802204Y5493336D01*
X7798701Y5505300D01*
X7798700Y5505300D01*
X7798700Y5505300D01*
Y5594700D01*
D02*
G37*
G36*
X4743200Y5416200D02*
X4560800D01*
Y5233800D01*
X4743200D01*
Y5416200D01*
D02*
G37*
G36*
X4410007D02*
X4385994D01*
X4362798Y5409985D01*
X4342002Y5397978D01*
X4325022Y5380998D01*
X4313015Y5360202D01*
X4306800Y5337007D01*
Y5312993D01*
X4313015Y5289798D01*
X4325022Y5269002D01*
X4342002Y5252022D01*
X4362798Y5240015D01*
X4385994Y5233800D01*
X4410007D01*
X4433202Y5240015D01*
X4453998Y5252022D01*
X4470978Y5269002D01*
X4482985Y5289798D01*
X4489200Y5312993D01*
Y5337007D01*
X4482985Y5360202D01*
X4470978Y5380998D01*
X4453998Y5397978D01*
X4433202Y5409985D01*
X4410007Y5416200D01*
D02*
G37*
G36*
X3389818Y5737707D02*
X3365410D01*
X3341833Y5731389D01*
X3320695Y5719185D01*
X3303436Y5701926D01*
X3291232Y5680787D01*
X3284914Y5657211D01*
Y5632803D01*
X3291232Y5609226D01*
X3295851Y5601225D01*
X3267953Y5573326D01*
X3258129Y5558623D01*
X3254679Y5541280D01*
Y5245480D01*
X3250000Y5233747D01*
X3240280Y5229721D01*
Y5229720D01*
X3200797Y5190237D01*
X3189720Y5184720D01*
X3180000Y5188747D01*
X3047500D01*
X3037780Y5184720D01*
X2884306Y5031246D01*
X2865577D01*
X2859586Y5037238D01*
X2839314Y5048942D01*
X2816704Y5055000D01*
X2793296D01*
X2770686Y5048942D01*
X2750414Y5037238D01*
X2744423Y5031246D01*
X2690000D01*
X2680280Y5027220D01*
X2676253Y5017500D01*
Y4848226D01*
X2663553Y4842965D01*
X2619423Y4887096D01*
Y5041000D01*
X2617944Y5048433D01*
X2613734Y5054734D01*
X2477915Y5190553D01*
X2486382Y5205219D01*
X2492700Y5228796D01*
Y5253204D01*
X2486382Y5276781D01*
X2474178Y5297919D01*
X2456919Y5315178D01*
X2435781Y5327382D01*
X2412204Y5333700D01*
X2387796D01*
X2364219Y5327382D01*
X2343081Y5315178D01*
X2325822Y5297919D01*
X2313618Y5276781D01*
X2307300Y5253204D01*
Y5228796D01*
X2313618Y5205219D01*
X2325822Y5184081D01*
X2343081Y5166822D01*
X2364219Y5154618D01*
X2387796Y5148300D01*
X2412204D01*
X2435781Y5154618D01*
X2450447Y5163085D01*
X2580577Y5032955D01*
Y4879050D01*
X2582055Y4871617D01*
X2586266Y4865316D01*
X2860577Y4591005D01*
Y4458173D01*
X2855813Y4456199D01*
X2843801Y4444187D01*
X2837300Y4428494D01*
Y4411507D01*
X2843801Y4395813D01*
X2855813Y4383801D01*
X2871507Y4377300D01*
X2888494D01*
X2904187Y4383801D01*
X2916199Y4395813D01*
X2922700Y4411507D01*
Y4428494D01*
X2916199Y4444187D01*
X2904187Y4456199D01*
X2899423Y4458173D01*
Y4599049D01*
X2899423Y4599050D01*
X2897945Y4606483D01*
X2893734Y4612784D01*
X2767965Y4738554D01*
X2773226Y4751254D01*
X2927500D01*
X2937220Y4755280D01*
X2937221Y4755280D01*
X3048194Y4866253D01*
X3072873D01*
Y4758421D01*
X3137087D01*
X3138765Y4757370D01*
X3146524Y4745721D01*
X3145261Y4739371D01*
Y4713469D01*
X3147725Y4701080D01*
X3154743Y4690578D01*
X3201541Y4643780D01*
X3212043Y4636763D01*
X3224431Y4634299D01*
X3275586D01*
X3287975Y4636763D01*
X3298477Y4643780D01*
X3343792Y4689096D01*
X3350810Y4699598D01*
X3353274Y4711986D01*
Y4748560D01*
X3388814Y4784101D01*
X3528433D01*
Y4874501D01*
X3343034D01*
Y4829882D01*
X3298011Y4784859D01*
X3291294Y4774806D01*
X3290336Y4774607D01*
X3278594Y4777048D01*
Y4868911D01*
X3324324D01*
Y4914631D01*
X3278594D01*
Y4982872D01*
X3290327Y4987732D01*
X3343034Y4935026D01*
Y4919101D01*
X3364161D01*
X3365000Y4918753D01*
X3365001Y4918753D01*
X3515000D01*
X3515838Y4919101D01*
X3528433D01*
Y4931744D01*
X3528747Y4932500D01*
Y5182499D01*
X3528748Y5182500D01*
X3524721Y5192221D01*
X3524719Y5192221D01*
X3484720Y5232220D01*
X3475000Y5236247D01*
X3468964Y5233746D01*
X3358414D01*
Y5314057D01*
X3345321D01*
Y5342800D01*
X3361200D01*
Y5432200D01*
X3345321D01*
Y5522507D01*
X3375121Y5552307D01*
X3389818D01*
X3413395Y5558624D01*
X3434533Y5570828D01*
X3451792Y5588088D01*
X3463996Y5609226D01*
X3470314Y5632803D01*
Y5657211D01*
X3463996Y5680787D01*
X3451792Y5701926D01*
X3434533Y5719185D01*
X3413395Y5731389D01*
X3389818Y5737707D01*
D02*
G37*
G36*
X2412204Y4825700D02*
X2387796D01*
X2364219Y4819382D01*
X2343081Y4807178D01*
X2325822Y4789919D01*
X2313618Y4768781D01*
X2307300Y4745204D01*
Y4720796D01*
X2313618Y4697219D01*
X2325822Y4676081D01*
X2343081Y4658822D01*
X2364219Y4646618D01*
X2387796Y4640300D01*
X2412204D01*
X2435781Y4646618D01*
X2456919Y4658822D01*
X2474178Y4676081D01*
X2486382Y4697219D01*
X2492700Y4720796D01*
Y4745204D01*
X2486382Y4768781D01*
X2474178Y4789919D01*
X2456919Y4807178D01*
X2435781Y4819382D01*
X2412204Y4825700D01*
D02*
G37*
G36*
Y4571700D02*
X2387796D01*
X2364219Y4565382D01*
X2343081Y4553178D01*
X2325822Y4535919D01*
X2313618Y4514781D01*
X2307300Y4491204D01*
Y4466796D01*
X2313618Y4443219D01*
X2325822Y4422081D01*
X2343081Y4404822D01*
X2364219Y4392618D01*
X2387796Y4386300D01*
X2412204D01*
X2435781Y4392618D01*
X2456919Y4404822D01*
X2474178Y4422081D01*
X2486382Y4443219D01*
X2492700Y4466796D01*
Y4491204D01*
X2486382Y4514781D01*
X2474178Y4535919D01*
X2456919Y4553178D01*
X2435781Y4565382D01*
X2412204Y4571700D01*
D02*
G37*
G36*
Y5079700D02*
X2387796D01*
X2364219Y5073382D01*
X2343081Y5061178D01*
X2325822Y5043919D01*
X2313618Y5022781D01*
X2307300Y4999204D01*
Y4974796D01*
X2313618Y4951219D01*
X2325822Y4930081D01*
X2343081Y4912822D01*
X2364219Y4900618D01*
X2387796Y4894300D01*
X2412204D01*
X2435781Y4900618D01*
X2450447Y4909085D01*
X2749627Y4609904D01*
Y4409123D01*
X2744863Y4407149D01*
X2732851Y4395138D01*
X2726350Y4379444D01*
Y4362457D01*
X2732851Y4346763D01*
X2744863Y4334751D01*
X2760557Y4328250D01*
X2777544D01*
X2793237Y4334751D01*
X2805249Y4346763D01*
X2811750Y4362457D01*
Y4379444D01*
X2805249Y4395138D01*
X2793237Y4407149D01*
X2788473Y4409123D01*
Y4617950D01*
X2786995Y4625383D01*
X2782784Y4631684D01*
X2477915Y4936553D01*
X2486382Y4951219D01*
X2492700Y4974796D01*
Y4999204D01*
X2486382Y5022781D01*
X2474178Y5043919D01*
X2456919Y5061178D01*
X2435781Y5073382D01*
X2412204Y5079700D01*
D02*
G37*
G36*
Y4317700D02*
X2387796D01*
X2364219Y4311382D01*
X2343081Y4299178D01*
X2325822Y4281919D01*
X2313618Y4260781D01*
X2307300Y4237204D01*
Y4212796D01*
X2313618Y4189219D01*
X2325822Y4168081D01*
X2343081Y4150822D01*
X2364219Y4138618D01*
X2387796Y4132300D01*
X2412204D01*
X2435781Y4138618D01*
X2456919Y4150822D01*
X2474178Y4168081D01*
X2486382Y4189219D01*
X2492700Y4212796D01*
Y4237204D01*
X2486382Y4260781D01*
X2474178Y4281919D01*
X2456919Y4299178D01*
X2435781Y4311382D01*
X2412204Y4317700D01*
D02*
G37*
G36*
Y3809700D02*
X2387796D01*
X2364219Y3803382D01*
X2343081Y3791178D01*
X2325822Y3773919D01*
X2313618Y3752781D01*
X2307300Y3729204D01*
Y3704796D01*
X2313618Y3681219D01*
X2325822Y3660081D01*
X2343081Y3642822D01*
X2364219Y3630618D01*
X2387796Y3624300D01*
X2412204D01*
X2435781Y3630618D01*
X2456919Y3642822D01*
X2474178Y3660081D01*
X2486382Y3681219D01*
X2492700Y3704796D01*
Y3729204D01*
X2486382Y3752781D01*
X2474178Y3773919D01*
X2456919Y3791178D01*
X2435781Y3803382D01*
X2412204Y3809700D01*
D02*
G37*
G36*
Y3555700D02*
X2387796D01*
X2364219Y3549382D01*
X2343081Y3537178D01*
X2325822Y3519919D01*
X2313618Y3498781D01*
X2307300Y3475204D01*
Y3450796D01*
X2313618Y3427219D01*
X2325822Y3406081D01*
X2343081Y3388822D01*
X2364219Y3376618D01*
X2387796Y3370300D01*
X2412204D01*
X2435781Y3376618D01*
X2456919Y3388822D01*
X2474178Y3406081D01*
X2486382Y3427219D01*
X2492700Y3450796D01*
Y3475204D01*
X2486382Y3498781D01*
X2474178Y3519919D01*
X2456919Y3537178D01*
X2435781Y3549382D01*
X2412204Y3555700D01*
D02*
G37*
G36*
X2492700Y3301700D02*
X2307300D01*
Y3116300D01*
X2492700D01*
Y3301700D01*
D02*
G37*
G36*
X4928493Y5102700D02*
X4911506D01*
X4895812Y5096199D01*
X4883801Y5084187D01*
X4877300Y5068493D01*
Y5051506D01*
X4883801Y5035812D01*
X4894102Y5025511D01*
Y3174489D01*
X4883801Y3164187D01*
X4877300Y3148494D01*
Y3131507D01*
X4883801Y3115813D01*
X4895812Y3103801D01*
X4911506Y3097300D01*
X4928493D01*
X4944187Y3103801D01*
X4954489Y3114102D01*
X4984800D01*
Y3099300D01*
X5231930D01*
X5232500Y3098557D01*
Y3081443D01*
X5231930Y3080700D01*
X4984800D01*
Y3065898D01*
X4944489D01*
X4934187Y3076199D01*
X4918494Y3082700D01*
X4901507D01*
X4885813Y3076199D01*
X4873801Y3064187D01*
X4867300Y3048494D01*
Y3031507D01*
X4873801Y3015813D01*
X4885813Y3003801D01*
X4901507Y2997300D01*
X4918494D01*
X4934187Y3003801D01*
X4944489Y3014102D01*
X4984800D01*
Y2999300D01*
X5250200D01*
Y3028343D01*
X5262900Y3034921D01*
X5272411Y3029430D01*
X5288942Y3025000D01*
X5306057D01*
X5322589Y3029430D01*
X5332100Y3034921D01*
X5344800Y3028343D01*
Y3007948D01*
X5339491Y3004401D01*
X5316164Y2981073D01*
X5139150D01*
X5137274Y2980700D01*
X4984800D01*
Y2899300D01*
X5250200D01*
Y2942227D01*
X5324209D01*
X5331642Y2943705D01*
X5332100Y2944011D01*
X5344800Y2937223D01*
Y2899300D01*
X5610200D01*
Y2971243D01*
X5690034D01*
X5697467Y2972722D01*
X5703768Y2976932D01*
X5732784Y3005949D01*
X5736995Y3012250D01*
X5738473Y3019683D01*
Y3278087D01*
X5746199Y3285813D01*
X5752700Y3301506D01*
Y3318493D01*
X5746199Y3334187D01*
X5734187Y3346199D01*
X5718494Y3352700D01*
X5701507D01*
X5685813Y3346199D01*
X5673801Y3334187D01*
X5667300Y3318493D01*
Y3301506D01*
X5673801Y3285813D01*
X5685813Y3273801D01*
X5699627Y3268079D01*
Y3087353D01*
X5686927Y3079207D01*
X5678494Y3082700D01*
X5661507D01*
X5645813Y3076199D01*
X5635511Y3065898D01*
X5610200D01*
Y3080700D01*
X5363070D01*
X5362500Y3081443D01*
Y3098557D01*
X5358070Y3115089D01*
X5349513Y3129911D01*
X5337411Y3142013D01*
X5322589Y3150570D01*
X5306057Y3155000D01*
X5288942D01*
X5272411Y3150570D01*
X5262900Y3145079D01*
X5250200Y3151657D01*
Y3180700D01*
X4984800D01*
Y3165898D01*
X4954489D01*
X4945897Y3174489D01*
Y5025511D01*
X4956199Y5035812D01*
X4962700Y5051506D01*
Y5068493D01*
X4956199Y5084187D01*
X4944187Y5096199D01*
X4928493Y5102700D01*
D02*
G37*
G36*
X5698494Y2882700D02*
X5681507D01*
X5665813Y2876199D01*
X5655511Y2865897D01*
X5610200D01*
Y2880700D01*
X5344800D01*
Y2851657D01*
X5332100Y2845079D01*
X5322589Y2850570D01*
X5306057Y2855000D01*
X5288942D01*
X5272411Y2850570D01*
X5262900Y2845079D01*
X5250200Y2851657D01*
Y2880700D01*
X4984800D01*
Y2865897D01*
X4944489D01*
X4934187Y2876199D01*
X4918494Y2882700D01*
X4901507D01*
X4885813Y2876199D01*
X4873801Y2864187D01*
X4867300Y2848493D01*
Y2831506D01*
X4873801Y2815813D01*
X4885813Y2803801D01*
X4901507Y2797300D01*
X4918494D01*
X4934187Y2803801D01*
X4944489Y2814102D01*
X4984800D01*
Y2799300D01*
X5231930D01*
X5232500Y2798557D01*
Y2781443D01*
X5231930Y2780700D01*
X4984800D01*
Y2699300D01*
X5250200D01*
Y2728343D01*
X5262900Y2734921D01*
X5272411Y2729430D01*
X5288942Y2725000D01*
X5306057D01*
X5322589Y2729430D01*
X5332100Y2734921D01*
X5344800Y2728343D01*
Y2699300D01*
X5610200D01*
Y2780700D01*
X5363070D01*
X5362500Y2781443D01*
Y2798557D01*
X5363070Y2799300D01*
X5610200D01*
Y2814102D01*
X5655511D01*
X5665813Y2803801D01*
X5681507Y2797300D01*
X5698494D01*
X5714187Y2803801D01*
X5726199Y2815813D01*
X5732700Y2831506D01*
Y2848493D01*
X5726199Y2864187D01*
X5714187Y2876199D01*
X5698494Y2882700D01*
D02*
G37*
%LPD*%
G36*
X3515000Y5182500D02*
Y4932500D01*
X3365000D01*
X3278594Y5018906D01*
Y5025121D01*
X3232874D01*
Y5017874D01*
X3227500Y5012500D01*
Y4927500D01*
X3205000D01*
Y5175000D01*
X3250000Y5220000D01*
X3472500D01*
X3475000Y5222500D01*
X3515000Y5182500D01*
D02*
G37*
G36*
X3180000Y5027500D02*
X3187500Y5020000D01*
Y4882500D01*
X3162500D01*
X3145000Y4865000D01*
Y4772500D01*
X3125000D01*
Y4865000D01*
X3107500Y4882500D01*
X3105000Y4880000D01*
X3042500D01*
X2927500Y4765000D01*
X2765000D01*
X2690000Y4840000D01*
Y5017500D01*
X2890000D01*
X3047500Y5175000D01*
X3180000D01*
Y5027500D01*
D02*
G37*
D10*
X8423500Y4765000D02*
D03*
Y5375000D02*
D03*
D11*
X7900000Y5025000D02*
D03*
X7810000D02*
D03*
X7720000D02*
D03*
X7630000D02*
D03*
Y5115000D02*
D03*
X7720000D02*
D03*
X7810000D02*
D03*
X7900000D02*
D03*
X7990000D02*
D03*
Y5025000D02*
D03*
X7540000D02*
D03*
Y5115000D02*
D03*
X7990000Y4935000D02*
D03*
X7900000D02*
D03*
X7810000D02*
D03*
X7720000D02*
D03*
X7630000D02*
D03*
X7540000D02*
D03*
Y5205000D02*
D03*
X7630000D02*
D03*
X7720000D02*
D03*
X7810000D02*
D03*
X7900000D02*
D03*
X7990000D02*
D03*
D12*
X8127500Y5340000D02*
D03*
Y5295000D02*
D03*
Y5250000D02*
D03*
Y5205000D02*
D03*
Y5160000D02*
D03*
Y5115000D02*
D03*
Y5070000D02*
D03*
Y5025000D02*
D03*
Y4980000D02*
D03*
Y4935000D02*
D03*
Y4890000D02*
D03*
Y4845000D02*
D03*
Y4800000D02*
D03*
X7402500Y4800000D02*
D03*
Y4845000D02*
D03*
Y4890000D02*
D03*
Y4935000D02*
D03*
Y4980000D02*
D03*
Y5025000D02*
D03*
Y5070000D02*
D03*
Y5115000D02*
D03*
Y5160000D02*
D03*
Y5205000D02*
D03*
Y5250000D02*
D03*
Y5295000D02*
D03*
Y5340000D02*
D03*
D13*
Y4752500D02*
D03*
Y5387500D02*
D03*
X8127500Y4752500D02*
D03*
Y5387500D02*
D03*
D14*
X8080000Y4752500D02*
D03*
X8035000D02*
D03*
X7990000D02*
D03*
X7945000D02*
D03*
X7900000D02*
D03*
X7855000D02*
D03*
X7810000D02*
D03*
X7765000D02*
D03*
X7720000D02*
D03*
X7675000D02*
D03*
X7630000D02*
D03*
X7585000D02*
D03*
X7540000D02*
D03*
X7495000D02*
D03*
X7450000D02*
D03*
Y5387500D02*
D03*
X7495000D02*
D03*
X7540000D02*
D03*
X7585000D02*
D03*
X7630000D02*
D03*
X7675000D02*
D03*
X7720000D02*
D03*
X7765000D02*
D03*
X7810000D02*
D03*
X7855000D02*
D03*
X7900000D02*
D03*
X7945000D02*
D03*
X7990000D02*
D03*
X8035000D02*
D03*
X8080000D02*
D03*
D15*
X7333549Y4599271D02*
D03*
X7448549D02*
D03*
X7467500Y5550000D02*
D03*
X7582500D02*
D03*
X7027500Y5605000D02*
D03*
X7142500D02*
D03*
X7027500Y5755000D02*
D03*
X7142500D02*
D03*
D16*
X7844000Y5550000D02*
D03*
X7756000D02*
D03*
X3318500Y5387500D02*
D03*
X3406500D02*
D03*
X8044000Y5550000D02*
D03*
X7956000D02*
D03*
X3315714Y5269357D02*
D03*
X3403714D02*
D03*
D17*
X5477500Y2740000D02*
D03*
X5117500D02*
D03*
X5477500Y2840000D02*
D03*
X5117500D02*
D03*
X5477500Y2940000D02*
D03*
X5117500D02*
D03*
X5477500Y3040000D02*
D03*
X5117500D02*
D03*
X5477500Y3140000D02*
D03*
X5117500D02*
D03*
D18*
X6850000Y5645000D02*
D03*
X6720000D02*
D03*
Y5715000D02*
D03*
X6850000D02*
D03*
D19*
X3083024Y4891771D02*
D03*
X3268444D02*
D03*
D20*
X3095733Y4969241D02*
D03*
X3135734D02*
D03*
X3175734D02*
D03*
X3215733D02*
D03*
X3255734D02*
D03*
Y4814301D02*
D03*
X3215733D02*
D03*
X3175734D02*
D03*
X3135734D02*
D03*
X3095733D02*
D03*
D21*
X3435734Y4829301D02*
D03*
Y4964301D02*
D03*
D22*
X3120000Y5237500D02*
D03*
Y5102500D02*
D03*
D23*
X3578234Y5139301D02*
D03*
X3443234D02*
D03*
D24*
X3250009Y4728421D02*
Y4734357D01*
X3215733Y4768632D02*
Y4814301D01*
Y4768632D02*
X3250009Y4734357D01*
D25*
X3245986Y4724398D02*
X3250009Y4728421D01*
X7717183Y5384683D02*
X7720000Y5387500D01*
X7717183Y5359683D02*
Y5384683D01*
X7682500Y5325000D02*
X7717183Y5359683D01*
X7288688Y5254050D02*
X7362817D01*
X7337500Y5303100D02*
X7341550Y5299050D01*
X7335600Y5303100D02*
X7337500D01*
X7398450Y5299050D02*
X7402500Y5295000D01*
X7282313Y5247675D02*
X7288688Y5254050D01*
X7341550Y5299050D02*
X7398450D01*
X2400000Y5241000D02*
X2600000Y5041000D01*
Y4879050D02*
Y5041000D01*
Y4879050D02*
X2880000Y4599050D01*
Y4420000D02*
Y4599050D01*
X2400000Y4987000D02*
X2769050Y4617950D01*
Y4370950D02*
Y4617950D01*
X5710000Y3310000D02*
X5719050Y3300950D01*
X5353226Y2990667D02*
X5690034D01*
X5719050Y3019683D01*
Y3300950D01*
X5324209Y2961650D02*
X5353226Y2990667D01*
X5139150Y2961650D02*
X5324209D01*
X5117500Y2940000D02*
X5139150Y2961650D01*
X8107300Y5452500D02*
Y5467300D01*
Y5452500D02*
X8116350Y5443450D01*
Y5398650D02*
Y5443450D01*
Y5398650D02*
X8127500Y5387500D01*
X7342500Y5205000D02*
X7402500D01*
X7366867Y5250000D02*
X7402500D01*
X7362817Y5254050D02*
X7366867Y5250000D01*
X6850000Y5715000D02*
X6980000D01*
X7020000Y5755000D01*
X7027500D01*
X6905000Y5605000D02*
X7027500D01*
X6865000Y5645000D02*
X6905000Y5605000D01*
X6850000Y5645000D02*
X6865000D01*
X7142500Y5605000D02*
X7150000D01*
X7240949Y5695950D01*
Y5730950D01*
X7250000Y5740000D01*
X7263643Y5800000D02*
X7322693Y5740950D01*
X7195000Y5800000D02*
X7263643D01*
X7142500Y5755000D02*
X7150000D01*
X7195000Y5800000D01*
X7297500Y4980000D02*
X7402500D01*
X7397075Y5030424D02*
X7402500Y5025000D01*
X7349465Y5030424D02*
X7397075D01*
X7344041Y5035849D02*
X7349465Y5030424D01*
X7450000Y4600722D02*
Y4752500D01*
X7448549Y4599271D02*
X7450000Y4600722D01*
X8062500Y5160000D02*
X8127500D01*
X7649643Y5446424D02*
X7657500Y5454281D01*
X7649643Y5433625D02*
Y5446424D01*
X7638650Y5422632D02*
X7649643Y5433625D01*
X7638650Y5396150D02*
Y5422632D01*
X7630000Y5387500D02*
X7638650Y5396150D01*
X7585000Y5387500D02*
Y5547500D01*
X7825000Y5327300D02*
Y5340099D01*
X7846350Y5361449D01*
Y5378850D01*
X7855000Y5387500D01*
X7827500Y5458090D02*
X7835048Y5450542D01*
Y5446301D02*
Y5450542D01*
X7810000Y5421253D02*
X7835048Y5446301D01*
X7810000Y5387500D02*
Y5421253D01*
X7715950Y5449683D02*
X7720000Y5445634D01*
X7715950Y5449683D02*
Y5507950D01*
X7720000Y5387500D02*
Y5445634D01*
X7765000Y5387500D02*
Y5470000D01*
X7715950Y5507950D02*
X7756000Y5548000D01*
Y5550000D01*
X7582500D02*
X7585000Y5547500D01*
D26*
X3177633Y4713469D02*
X3224431Y4666671D01*
X3177633Y4713469D02*
Y4739371D01*
X3224431Y4666671D02*
X3275586D01*
X3320902Y4761969D02*
X3388234Y4829301D01*
X3320902Y4711986D02*
Y4761969D01*
X3275586Y4666671D02*
X3320902Y4711986D01*
X3388234Y4829301D02*
X3435734D01*
D27*
X3175734Y4814301D02*
X3177633Y4812401D01*
Y4739371D02*
Y4812401D01*
D28*
X7200000Y5310000D02*
X7340000Y5450000D01*
X7200000Y4732820D02*
Y5310000D01*
X7326049Y4599271D02*
X7333549D01*
X7308749Y4616571D02*
X7326049Y4599271D01*
X7308749Y4616571D02*
Y4624071D01*
X7200000Y4732820D02*
X7308749Y4624071D01*
X4920000Y3140000D02*
Y5060000D01*
X5477500Y3040000D02*
X5670000D01*
X8026700Y5567300D02*
X8044000Y5550000D01*
X8026700Y5567300D02*
Y5600393D01*
X7980000Y5647093D02*
X8026700Y5600393D01*
X7980000Y5647093D02*
Y5650000D01*
X4920000Y3140000D02*
X5117500D01*
X4910000Y3040000D02*
X5117500D01*
X5477500Y2840000D02*
X5690000D01*
X4910000D02*
X5117500D01*
X7340000Y5450000D02*
X7402500Y5387500D01*
X7495000D02*
Y5455000D01*
X7990000Y5387500D02*
Y5443150D01*
X8026750Y5479900D01*
Y5532749D01*
X8044000Y5550000D01*
D29*
X3300000Y5176498D02*
Y5541280D01*
Y5176498D02*
X3337198Y5139301D01*
X3443234D01*
X3377614Y5618894D02*
Y5645007D01*
X3300000Y5541280D02*
X3377614Y5618894D01*
D30*
Y5645007D02*
D03*
D31*
X2400000Y5241000D02*
D03*
Y4987000D02*
D03*
Y4733000D02*
D03*
Y4225000D02*
D03*
Y3717000D02*
D03*
Y3463000D02*
D03*
Y3971000D02*
D03*
Y4479000D02*
D03*
D32*
Y3209000D02*
D03*
D33*
X5297500Y2790000D02*
D03*
Y3090000D02*
D03*
D34*
X2805000Y3467500D02*
D03*
Y4966100D02*
D03*
D35*
X4398000Y5325000D02*
D03*
D36*
X4652000D02*
D03*
D37*
X3250009Y4728421D02*
D03*
X7682500Y5325000D02*
D03*
X7282313Y5247675D02*
D03*
X7337500Y5303100D02*
D03*
X7900000Y5025000D02*
D03*
X4920000Y5060000D02*
D03*
X5710000Y3310000D02*
D03*
X5670000Y3040000D02*
D03*
X8107300Y5452500D02*
D03*
X2769050Y4370950D02*
D03*
X2880000Y4420000D02*
D03*
X7342500Y5205000D02*
D03*
X7250000Y5740000D02*
D03*
X7322693Y5740950D02*
D03*
X7980000Y5650000D02*
D03*
X4920000Y3140000D02*
D03*
X4910000Y3040000D02*
D03*
X5690000Y2840000D02*
D03*
X4910000D02*
D03*
X7340000Y5450000D02*
D03*
X7495000Y5455000D02*
D03*
X3315000Y5150000D02*
D03*
X3285000Y5075000D02*
D03*
X3237500Y5142500D02*
D03*
X7297500Y4980000D02*
D03*
X7344041Y5035849D02*
D03*
X8062500Y5160000D02*
D03*
X7649643Y5446424D02*
D03*
X7825000Y5327300D02*
D03*
X7835048Y5450542D02*
D03*
X7765000Y5470000D02*
D03*
%TF.MD5,d2ba31eb647f17076d9c536b732afd8b*%
M02*
